<svg width="2167" height="659" viewBox="0 0 2167 659" fill="none" xmlns="http://www.w3.org/2000/svg">
<rect x="58.0473" y="36.0047" width="2043.17" height="586.841" rx="70.7834" fill="white" stroke="#C6C5C5" stroke-width="0.489851"/>
<path d="M158.12 184.891V143.304H165.011V160.77H173.507L183.666 143.304H191.508L179.745 162.909L192.399 184.891H184.557L174.22 166.83H165.011V184.891H158.12ZM195.648 179.068V157.443L201.471 151.621H219.531L225.353 157.443V179.068L219.531 184.891H201.471L195.648 179.068ZM202.54 179.068H218.462V157.443H202.54V179.068ZM231.627 184.891V151.621H239.826L249.628 167.781L259.431 151.621H267.63V184.891H261.035V159.285L251.53 175.266H247.727L238.162 159.285V184.891H231.627ZM273.379 193.208V187.267H288.647L290.786 180.138H280.567L271.537 151.621H278.547L285.558 174.316H292.33L299.044 151.621H305.995L293.519 193.208H273.379ZM325.563 184.891V151.621H355.743V184.891H348.851V157.681H332.454V184.891H325.563ZM362.63 193.208V151.621H387.107L393.166 157.681V178.831L387.107 184.891H369.521V193.208H362.63ZM386.275 157.562H369.521V178.95H386.275V157.562ZM399.114 179.068V157.443L404.936 151.621H428.225V170.157H406.006V178.95H427.037V184.891H404.936L399.114 179.068ZM406.006 165.761L421.987 165.167V157.325H406.006V165.761ZM436.177 193.208V187.267H457.208V180.138H439.979L434.157 174.316V157.443L440.454 151.621H464.099V186.792L457.683 193.208H436.177ZM441.048 157.562V174.316H457.208V157.562H441.048ZM500.954 151.621V184.891H494.062V157.384H482.893L478.141 184.891H468.338V178.712H472.378L477.071 151.621H500.954ZM507.021 178.95V165.88L529.715 165.285V157.562H508.209V151.621H530.666L536.606 157.562V184.891H512.962L507.021 178.95ZM513.912 170.87V179.068H529.715V169.682L513.912 170.87ZM543.237 184.891V151.621H566.644V157.8H550.129V184.891H543.237ZM570.549 178.95V165.88L593.244 165.285V157.562H571.737V151.621H594.194L600.135 157.562V184.891H576.49L570.549 178.95ZM577.441 170.87V179.068H593.244V169.682L577.441 170.87ZM623.519 184.891H616.628V157.681H604.627V151.621H635.52V157.681H623.519V184.891ZM640.01 184.891V151.621H646.901V159.701H664.724L670.546 165.523V179.068L664.724 184.891H640.01ZM646.901 179.068H663.655V165.523H646.901V179.068ZM691.703 184.891V151.621H698.594V165.226H715.11V151.621H722.002V184.891H715.11V171.226H698.594V184.891H691.703ZM728.066 178.95V165.88L750.76 165.285V157.562H729.254V151.621H751.711L757.652 157.562V184.891H734.007L728.066 178.95ZM734.957 170.87V179.068H750.76V169.682L734.957 170.87ZM791.135 151.621V178.831H804.205V151.621H811.097V184.891H764.282V151.621H771.174V178.831H784.244V151.621H791.135ZM832.85 179.068V157.443L838.672 151.621H860.297V157.8H839.742V178.712H860.297V184.891H838.672L832.85 179.068ZM864.933 179.068V157.443L870.756 151.621H894.044V170.157H871.825V178.95H892.856V184.891H870.756L864.933 179.068ZM871.825 165.761L887.806 165.167V157.325H871.825V165.761ZM900.332 193.208V151.621H924.809L930.869 157.681V178.831L924.809 184.891H907.224V193.208H900.332ZM923.977 157.562H907.224V178.95H923.977V157.562ZM937.173 151.621H961.412L966.284 156.493V164.929L962.897 167.484L967.472 171.108V180.019L962.6 184.891H937.173V151.621ZM944.005 165.285H959.511V157.206H944.005V165.285ZM944.005 179.306H960.58V170.632H944.005V179.306ZM1005.51 184.891H998.683V159.404L981.395 184.891H973.434V151.621H980.266V177.227L997.554 151.621H1005.51V184.891ZM1011.83 179.068V157.443L1017.65 151.621H1039.28V157.8H1018.72V178.712H1039.28V184.891H1017.65L1011.83 179.068Z" fill="black"/>
<rect x="132.343" y="299.299" width="585.436" height="235.535" rx="25.6864" fill="white" stroke="#C6C5C5" stroke-width="2.12576"/>
<mask id="mask0_570_289" style="mask-type:alpha" maskUnits="userSpaceOnUse" x="131" y="242" width="516" height="294">
<path d="M158.029 535.895H619.872C647.178 535.895 656.935 499.794 633.347 486.039L222.768 246.607C218.678 244.222 214.028 242.965 209.293 242.965H158.029C143.256 242.965 131.28 254.941 131.28 269.714V298.235V509.146C131.28 523.919 143.256 535.895 158.029 535.895Z" fill="#D9D9D9"/>
</mask>
<g mask="url(#mask0_570_289)">
<path d="M154.638 334.085C167.545 326.634 183.447 326.634 196.354 334.085L265.832 374.199C278.739 381.65 286.69 395.422 286.69 410.326V490.552C286.69 505.456 278.739 519.228 265.832 526.68L196.354 566.793C183.447 574.245 167.545 574.245 154.638 566.793L85.1598 526.68C72.2526 519.228 64.3015 505.456 64.3015 490.552V410.326C64.3015 395.422 72.2527 381.65 85.1598 374.199L154.638 334.085Z" fill="#0080E5" fill-opacity="0.17"/>
<path d="M190.523 334.352C190.523 334.352 172.735 346.029 162.173 376.255C151.611 406.481 147.719 432.981 147.719 432.981L169.765 439.568C169.765 439.568 196.639 343.739 190.523 334.352Z" fill="#004569"/>
<path d="M230.919 322.989C230.919 322.989 200.9 329.246 190.523 334.352C180.146 339.456 170.881 372.063 168.657 400.058C166.435 428.054 173.106 463.295 173.106 463.295L275.576 460.897C275.576 460.897 286.507 388.861 286.878 364.817C287.249 340.774 272.598 329.128 272.598 329.128L230.919 322.989Z" fill="#005484"/>
<path d="M206.684 283.967C206.684 283.967 205.448 301.747 207.673 306.441C209.895 311.133 214.621 312.369 219.346 312.863C224.071 313.357 215.177 334.354 215.177 334.354L242.416 331.883C242.416 331.883 241.026 299.277 242.416 287.667C243.807 276.058 233.089 273.834 224.55 273.834C210.826 273.834 209.185 278.533 206.684 283.967Z" fill="#FFA18B"/>
<path d="M310.328 678.889L279.548 683.707L254.825 618.311L244.721 591.581L224.617 538.392L199.413 683.707H168.205C168.205 683.707 168.23 652.468 168.23 618.22C168.244 607.994 168.244 597.505 168.244 587.499C168.244 571.994 168.23 557.666 168.205 547.279C168.126 507.764 173.107 463.29 173.107 463.29L275.579 460.893L283.918 508.744L310.328 678.889Z" fill="#73A2DB"/>
<path d="M203.123 494.253L212.018 499.523L224.611 538.387" stroke="#9BBAEA" stroke-width="1.30349" stroke-miterlimit="10"/>
<path d="M178.294 469.717L273.353 467.247" stroke="#9BBAEA" stroke-width="1.30349" stroke-miterlimit="10"/>
<path d="M256.119 468.482C256.119 468.482 260.173 483.339 279.548 483.691" stroke="#9BBAEA" stroke-width="1.30349" stroke-miterlimit="10"/>
<path d="M147.719 432.982C147.719 432.982 149.666 437.69 163.563 441.724C177.46 445.758 230.92 425.172 230.92 425.172L225.823 417.599C225.823 417.599 180.032 415.129 169.573 417.599C159.116 420.069 147.719 432.982 147.719 432.982Z" fill="#E5816E"/>
<path d="M272.599 329.127C272.599 329.127 292.437 335.47 295.032 361.176C297.626 386.883 262.05 450.449 262.05 450.449L230.919 439.568C230.919 439.568 256.094 345.807 272.599 329.127Z" fill="#004569"/>
<path d="M236.12 426.244L178.294 414.327L174.218 426.738C174.218 426.738 239.444 458.027 262.05 450.452L236.12 426.244Z" fill="#FFA18B"/>
<path d="M241.954 317.062C241.954 317.062 227.754 327.209 224.612 333.499L239.072 340.941L247.629 325.453L241.954 317.062Z" fill="#004569"/>
<path d="M219.507 322.186L224.611 333.499L212.792 339.172C212.792 339.172 212.509 331.928 212.819 327.212L219.507 322.186Z" fill="#004569"/>
<path d="M178.294 414.324C178.294 414.324 174.196 412.736 169.574 412.242C164.953 411.748 158.836 416.853 156.984 420.147L161.66 421.094C161.66 421.094 168.473 426.734 174.218 426.734C179.961 426.734 178.294 414.324 178.294 414.324Z" fill="#FFA18B"/>
<path d="M225.823 417.594C225.823 417.594 237.774 412.504 241.295 412.208C244.816 411.913 251.672 416.689 253.897 420.805C253.897 420.805 251.116 420.971 249.449 420.805C249.449 420.805 245.895 424.959 242.222 426.735C238.551 428.509 225.823 423.275 225.823 423.275V417.594Z" fill="#E5816E"/>
<path d="M218.642 336.359L219.709 345.219H227.545L232.454 337.531L224.61 333.494L218.642 336.359Z" fill="#73A2DB"/>
<path d="M219.708 345.222C219.708 345.222 214.983 353.62 210.536 368.071C206.088 382.521 202.059 401.913 202.059 401.913L207.34 413.029L221.932 401.295L227.546 345.222H219.708Z" fill="#73A2DB"/>
<path d="M206.684 283.964C206.684 283.964 205.342 274.394 212.673 268.59C220.005 262.785 233.951 264.511 238.364 266.708C242.776 268.904 242.538 271.571 242.538 271.571C242.538 271.571 246.837 272.041 248.955 278.787C251.074 285.533 246.844 300.116 241.809 307.336C241.809 307.336 238.01 305.143 237.657 299.966C237.657 299.966 241.542 297.77 241.718 291.965C241.894 286.161 237.23 286.474 236.12 291.809C236.12 291.809 233.068 288.043 235.009 281.924C235.009 281.924 232.01 278.316 220.888 278.316C209.767 278.316 206.684 283.964 206.684 283.964Z" fill="#004569"/>
</g>
<path d="M336.106 382.676V364.422L338.811 361.717H351.318V364.489H339.149V382.609H351.656V385.381H338.811L336.106 382.676ZM354.523 382.338V369.493L357.566 366.45H368.045L371.088 369.493V382.338L368.045 385.381H357.566L354.523 382.338ZM357.566 382.676H368.045V369.154H357.566V382.676ZM378.005 382.676H388.991V370.845H378.005V382.676ZM378.005 385.381L374.962 382.338V364.76L378.005 361.717H391.527V364.422H378.005V368.14H389.329L392.034 370.845V382.338L388.991 385.381H378.005ZM395.756 382.338V369.493L398.799 366.45H411.306V369.154H398.799V382.676H411.306V385.381H398.799L395.756 382.338ZM423.305 385.381H420.262V369.154H412.994V366.45H430.573V369.154H423.305V385.381ZM433.263 366.45H446.785L449.489 369.154V374.056L447.562 375.51L450.165 377.538V382.676L447.461 385.381H433.263V366.45ZM436.305 374.36H446.446V369.154H436.305V374.36ZM436.305 382.676H447.123V377.065H436.305V382.676ZM453.726 382.338V369.493L456.769 366.45H469.953V376.93H456.769V382.676H469.277V385.381H456.769L453.726 382.338ZM456.769 374.563L467.046 374.225V369.154H456.769V374.563ZM473.835 385.381V366.45H476.878V374.563H487.695V366.45H490.738V385.381H487.695V377.268H476.878V385.381H473.835ZM494.798 385.381V366.45H497.841V374.563H508.658V366.45H511.701V385.381H508.658V377.268H497.841V385.381H494.798ZM533.678 385.381H530.635V369.594L519.75 385.381H515.761V366.45H518.804V382.237L529.689 366.45H533.678V385.381ZM537.748 385.381V366.45H540.79V374.191H547.348L552.554 366.45H556.07L550.087 375.172L556.34 385.381H552.892L547.788 376.896H540.79V385.381H537.748ZM558.373 382.338V374.563L571.895 374.225V369.154H559.049V366.45H571.895L574.937 369.493V385.381H561.415L558.373 382.338ZM561.415 377.268V382.676H571.895V376.592L561.415 377.268ZM578.981 385.381V366.45H582.834L589.122 376.118L595.41 366.45H599.264V385.381H596.289V369.831L590.136 379.296H588.108L581.955 369.831V385.381H578.981ZM630.009 385.381H626.966V369.594L616.081 385.381H612.092V366.45H615.135V382.237L626.02 366.45H630.009V385.381ZM336.106 434.114V410.45H350.135L353.178 413.493V426.338L350.135 429.381H339.149V434.114H336.106ZM350.135 413.154H339.149V426.676H350.135V413.154ZM356.427 434.114V431.409H365.25L366.704 426.676H360.923L355.413 410.45H358.489L363.087 423.972H367.515L371.876 410.45H374.952L367.38 434.114H356.427ZM377.339 429.381V410.45H380.381V418.191H386.94L392.146 410.45H395.661L389.678 419.172L395.932 429.381H392.484L387.379 420.896H380.381V429.381H377.339ZM397.473 426.338V413.493L400.515 410.45H410.995L414.037 413.493V426.338L410.995 429.381H400.515L397.473 426.338ZM400.515 426.676H410.995V413.154H400.515V426.676ZM417.912 410.45H431.434L434.138 413.154V418.056L432.211 419.51L434.814 421.538V426.676L432.11 429.381H417.912V410.45ZM420.954 418.36H431.096V413.154H420.954V418.36ZM420.954 426.676H431.772V421.065H420.954V426.676ZM438.376 426.338V413.493L441.418 410.45H451.898L454.94 413.493V426.338L451.898 429.381H441.418L438.376 426.338ZM441.418 426.676H451.898V413.154H441.418V426.676ZM459.829 434.114V431.409H472.336V426.676H461.688L458.645 423.634V413.493L462.026 410.45H475.379V430.936L472.201 434.114H459.829ZM461.688 413.154V423.972H472.336V413.154H461.688ZM497.364 429.381H494.321V413.594L483.436 429.381H479.447V410.45H482.49V426.237L493.375 410.45H497.364V429.381ZM510.392 429.381H507.35V413.154H500.082V410.45H517.66V413.154H510.392V429.381ZM520.181 426.338V413.493L523.223 410.45H536.407V420.93H523.223V426.676H535.731V429.381H523.223L520.181 426.338ZM523.223 418.563L533.5 418.225V413.154H523.223V418.563ZM557.192 410.45V429.381H554.15V413.087H546.679L543.738 429.381H538.768V426.609H541.202L544.143 410.45H557.192ZM564.464 420.592H574.437V413.154H564.464V420.592ZM561.422 420.93V413.154L564.126 410.45H577.479V429.381H574.437V423.296H566.019L563.011 429.381H559.732L563.213 422.721L561.422 420.93ZM581.523 429.381V410.45H585.376L591.664 420.118L597.952 410.45H601.806V429.381H598.831V413.831L592.678 423.296H590.65L584.497 413.831V429.381H581.523ZM335.937 470.338V457.493L338.98 454.45H351.487V457.154H338.98V470.676H351.487V473.381H338.98L335.937 470.338ZM354.527 478.114V454.45H368.556L371.599 457.493V470.338L368.556 473.381H357.57V478.114H354.527ZM368.556 457.154H357.57V470.676H368.556V457.154ZM375.321 470.338V457.493L378.364 454.45H391.548V464.93H378.364V470.676H390.872V473.381H378.364L375.321 470.338ZM378.364 462.563L388.64 462.225V457.154H378.364V462.563ZM396.444 478.114V475.409H408.952V470.676H398.303L395.261 467.634V457.493L398.641 454.45H411.994V474.936L408.817 478.114H396.444ZM398.303 457.154V467.972H408.952V457.154H398.303ZM416.063 473.381V454.45H419.105V462.563H429.923V454.45H432.965V473.381H429.923V465.268H419.105V473.381H416.063ZM436.857 470.338V457.493L439.899 454.45H453.083V464.93H439.899V470.676H452.407V473.381H439.899L436.857 470.338ZM439.899 462.563L450.176 462.225V457.154H439.899V462.563ZM456.966 473.381V454.45H470.15V457.154H460.008V473.381H456.966ZM472.676 470.338V457.493L475.718 454.45H486.198L489.24 457.493V470.338L486.198 473.381H475.718L472.676 470.338ZM475.718 470.676H486.198V457.154H475.718V470.676ZM504.938 470.676H515.925V458.845H504.938V470.676ZM504.938 473.381L501.896 470.338V452.76L504.938 449.717H518.46V452.422H504.938V456.14H516.263L518.967 458.845V470.338L515.925 473.381H504.938ZM540.776 473.381H537.733V457.594L526.848 473.381H522.859V454.45H525.901V470.237L536.787 454.45H540.776V473.381ZM560.903 470.676L558.198 473.381H544V470.676H557.86V465.065H545.691V462.36H557.184V457.154H544.338V454.45H557.522L560.227 457.154V462.056L558.3 463.51L560.903 465.538V470.676ZM564.785 473.381V454.45H567.828V462.563H578.645V454.45H581.688V473.381H578.645V465.268H567.828V473.381H564.785ZM585.579 470.338V457.493L588.622 454.45H601.806V464.93H588.622V470.676H601.129V473.381H588.622L585.579 470.338ZM588.622 462.563L598.898 462.225V457.154H588.622V462.563ZM605.519 470.338V457.493L608.561 454.45H621.069V457.154H608.561V470.676H621.069V473.381H608.561L605.519 470.338ZM623.771 470.338V462.563L637.293 462.225V457.154H624.447V454.45H637.293L640.335 457.493V473.381H626.813L623.771 470.338ZM626.813 465.268V470.676H637.293V464.592L626.813 465.268Z" fill="black"/>
<rect x="789.233" y="299.299" width="585.436" height="235.535" rx="25.6864" fill="white" stroke="#C6C5C5" stroke-width="2.12576"/>
<mask id="mask1_570_289" style="mask-type:alpha" maskUnits="userSpaceOnUse" x="788" y="242" width="516" height="294">
<path d="M814.919 535.895H1276.76C1304.07 535.895 1313.83 499.794 1290.24 486.039L879.658 246.607C875.568 244.222 870.918 242.965 866.183 242.965H814.919C800.146 242.965 788.17 254.941 788.17 269.714V298.235V509.146C788.17 523.919 800.146 535.895 814.919 535.895Z" fill="#D9D9D9"/>
</mask>
<g mask="url(#mask1_570_289)">
<path d="M811.528 334.085C824.435 326.634 840.337 326.634 853.244 334.085L922.722 374.199C935.629 381.65 943.58 395.422 943.58 410.326V490.552C943.58 505.456 935.629 519.228 922.722 526.68L853.244 566.793C840.337 574.245 824.435 574.245 811.528 566.793L742.05 526.68C729.143 519.228 721.192 505.456 721.192 490.552V410.326C721.192 395.422 729.143 381.65 742.05 374.199L811.528 334.085Z" fill="#0080E5" fill-opacity="0.17"/>
<path d="M852.586 287.746C852.586 287.746 851.663 295.303 853.449 304.519C855.234 313.739 862.897 316.953 863.81 318.546C864.721 320.138 862.606 327.407 861.179 332.681L872.253 341.939L883.266 333.211C883.266 333.211 879.145 324.733 879.789 318.14C879.789 318.14 885.12 316.154 886.743 304.342C888.366 292.531 884.509 276.419 884.509 276.419C884.509 276.419 859.284 275.545 852.586 287.746Z" fill="#FFA18B"/>
<path d="M862.355 327.798L829.835 341.435L843.183 406.812L833.944 452.105L919.906 447.337L907.865 410.472C907.865 410.472 914.795 354.383 913.061 348.866C911.326 343.348 911.78 339.881 911.78 339.881L881.429 327.716L872.422 337.568L862.355 327.798Z" fill="#DF535C"/>
<path d="M833.945 452.106C833.945 452.106 831.231 472.052 831.758 508.864C832.288 545.676 838.25 603.154 838.25 603.154L915.042 611.93C915.042 611.93 930.012 478.273 919.907 447.338L833.945 452.106Z" fill="#462753"/>
<path d="M913.506 341.717C919.417 354.451 927.172 379.244 927.172 379.244L903.943 387.254L891.198 358.002C891.198 358.002 908.712 331.394 913.506 341.717Z" fill="#DF535C"/>
<path d="M876.094 278.656C876.094 278.656 875.671 283.526 867.597 288.472C859.522 293.416 853.029 295.211 853.029 295.211C853.029 295.211 853.584 306.716 856.086 310.979C858.589 315.243 863.112 317.11 863.809 318.548C864.508 319.985 862.356 327.798 862.356 327.798L841.996 336.336C841.996 336.336 836.426 286.542 849.66 276.54C849.66 276.54 857.128 259.535 878.76 267.732C900.635 276.02 900.566 335.387 900.566 335.387L881.428 327.717C881.428 327.717 879.048 322.201 879.789 318.141C879.789 318.141 888.449 311.904 885.763 290.632C885.763 290.632 876.328 285.067 876.094 278.656Z" fill="#004569"/>
<path d="M924.342 380.216C924.342 380.216 927.092 399.043 922.755 410.557C918.417 422.069 911.083 425.485 894.217 423.667C877.351 421.851 839.913 403.278 839.913 403.278L845.073 393.355L907.919 401.508L910.784 384.891L924.342 380.216Z" fill="#E5816E"/>
<path d="M834.395 403.295L836.239 395.669L816.191 392.44C816.191 392.44 813.933 408.12 815.45 414.214C815.45 414.214 817.627 424.024 830.456 424.5C846.221 425.086 898.676 406.469 898.676 406.469L894.105 397.625C894.105 397.625 837.263 402.484 834.395 403.295Z" fill="#FFA18B"/>
<path d="M828.445 342.16C817.214 350.587 814.132 395.347 814.132 395.347L836.573 398.762L847.181 370.092C847.181 370.092 837.548 335.331 828.445 342.16Z" fill="#DF535C"/>
<path d="M835.516 386.999C835.49 386.965 835.48 386.928 835.455 386.893C835.455 386.893 833.735 385.903 831.203 385.158C828.673 384.412 826.078 384.436 826.374 385.588C826.67 386.741 828.987 386.675 831.381 387.754C832.516 388.266 833.535 388.853 834.303 389.333L834.285 389.377C833.717 389.079 832.257 388.362 830.301 387.785C827.769 387.04 825.175 387.064 825.47 388.215C825.768 389.368 828.083 389.303 830.477 390.383C831.56 390.87 832.533 391.424 833.287 391.891L833.12 392.314C832.382 391.957 831.156 391.418 829.623 390.967C827.091 390.221 824.498 390.245 824.794 391.397C825.091 392.55 827.405 392.484 829.801 393.564C830.666 393.954 831.463 394.389 832.137 394.786L831.856 395.491C831.13 395.172 830.177 394.792 829.048 394.461C826.516 393.715 823.921 393.739 824.219 394.891C824.514 396.044 826.83 395.978 829.224 397.058C829.82 397.327 830.385 397.615 830.9 397.901C830.9 397.901 833.365 401.472 839.912 403.281C839.912 403.281 844.192 398.776 845.071 393.358L835.516 386.999Z" fill="#E5816E"/>
<path d="M898.676 406.469C898.676 406.469 904.299 404.525 907.918 401.511L908.867 396.009C908.867 396.009 906.312 393.915 901.765 394.469C897.218 395.025 891.072 397.886 891.072 397.886C891.072 397.886 895.62 406.206 898.676 406.469Z" fill="#FFA18B"/>
<path d="M858.629 329.359L858.216 340.134L865.608 342.605L864.191 349.123L872.825 357.438L872.421 337.566L862.355 327.797L858.629 329.359Z" fill="#462753"/>
<path d="M881.428 327.714L872.422 337.564L872.824 357.436L880.626 348.539L878.666 342.186L884.897 338.353L885.968 329.534L881.428 327.714Z" fill="#462753"/>
<path d="M836.957 351.387C836.957 351.387 833.844 368.787 833.875 375.506C833.91 382.221 835.516 387 835.516 387" stroke="#B03D49" stroke-width="1.49375" stroke-miterlimit="10" stroke-linecap="round" stroke-linejoin="round"/>
<path d="M904.844 349.91C904.844 349.91 908.843 360.187 909.938 368.21C911.034 376.234 910.785 384.891 910.785 384.891" stroke="#B03D49" stroke-width="1.49375" stroke-miterlimit="10" stroke-linecap="round" stroke-linejoin="round"/>
<path d="M843.052 445.842C843.052 445.842 885.184 445.931 910.641 442.033" stroke="#B03D49" stroke-width="1.49375" stroke-miterlimit="10" stroke-linecap="round" stroke-linejoin="round"/>
<path d="M872.422 337.568L872.764 354.52" stroke="#62377A" stroke-width="1.49375" stroke-miterlimit="10"/>
<path d="M896.757 480.396C896.757 480.396 878.334 522.726 857.386 540.996" stroke="#62377A" stroke-width="1.49375" stroke-miterlimit="10" stroke-linecap="round" stroke-linejoin="round"/>
</g>
<path d="M1013.08 380.152V366.63L1015.78 363.926H1033.36L1036.07 366.63V380.152L1033.36 382.856H1015.78L1013.08 380.152ZM1016.12 366.63V380.152H1033.03V366.63H1016.12ZM1026.1 385.223H1023.05V361.559H1026.1V385.223ZM1058.03 385.223H1054.99V369.436L1044.11 385.223H1040.12V366.292H1043.16V382.079L1054.05 366.292H1058.03V385.223ZM1062.1 385.223V366.292H1065.15V374.405H1075.96V366.292H1079.01V385.223H1075.96V377.109H1065.15V385.223H1062.1ZM1082.73 382.18V374.405L1096.25 374.067V368.996H1083.41V366.292H1096.25L1099.29 369.334V385.223H1085.77L1082.73 382.18ZM1085.77 377.109V382.518H1096.25V376.433L1085.77 377.109ZM1103.34 385.223V366.292H1106.38V374.405H1117.2V366.292H1120.24V385.223H1117.2V377.109H1106.38V385.223H1103.34ZM1124.13 382.18V369.334L1127.17 366.292H1139.68V368.996H1127.17V382.518H1139.68V385.223H1127.17L1124.13 382.18ZM1142.55 382.18V369.334L1145.59 366.292H1156.07L1159.12 369.334V382.18L1156.07 385.223H1145.59L1142.55 382.18ZM1145.59 382.518H1156.07V368.996H1145.59V382.518ZM1162.99 366.292H1176.51L1179.22 368.996V373.898L1177.29 375.352L1179.89 377.38V382.518L1177.19 385.223H1162.99V366.292ZM1166.03 374.202H1176.18V368.996H1166.03V374.202ZM1166.03 382.518H1176.85V376.907H1166.03V382.518ZM1183.62 385.223V366.292H1186.67V371.025H1197.65L1200.7 374.067V382.18L1197.65 385.223H1183.62ZM1186.67 382.518H1197.65V373.729H1186.67V382.518ZM1204.58 385.223V366.292H1207.63V385.223H1204.58ZM1211.68 385.223V366.292H1215.54L1221.83 375.96L1228.11 366.292H1231.97V385.223H1228.99V369.672L1222.84 379.138H1220.81L1214.66 369.672V385.223H1211.68ZM1014.09 433.955V431.251H1026.6V426.518H1015.95L1012.91 423.476V413.334L1016.29 410.292H1029.64V430.778L1026.47 433.955H1014.09ZM1015.95 412.996V423.814H1026.6V412.996H1015.95ZM1051.63 429.223H1048.59V413.436L1037.7 429.223H1033.71V410.292H1036.76V426.079L1047.64 410.292H1051.63V429.223ZM1055.7 433.955V410.292H1069.73L1072.77 413.334V426.18L1069.73 429.223H1058.74V433.955H1055.7ZM1069.73 412.996H1058.74V426.518H1069.73V412.996ZM1076.49 426.18V413.334L1079.54 410.292H1092.72V420.771H1079.54V426.518H1092.04V429.223H1079.54L1076.49 426.18ZM1079.54 418.405L1089.81 418.067V412.996H1079.54V418.405ZM1096.6 429.223V410.292H1099.64V418.033H1106.2L1111.41 410.292H1114.92L1108.94 419.014L1115.2 429.223H1111.75L1106.64 420.738H1099.64V429.223H1096.6ZM1126.52 429.223H1123.48V412.996H1116.21V410.292H1133.79V412.996H1126.52V429.223ZM1136.31 426.18V413.334L1139.36 410.292H1149.83L1152.88 413.334V426.18L1149.83 429.223H1139.36L1136.31 426.18ZM1139.36 426.518H1149.83V412.996H1139.36V426.518ZM1156.75 433.955V410.292H1170.78L1173.82 413.334V426.18L1170.78 429.223H1159.79V433.955H1156.75ZM1170.78 412.996H1159.79V426.518H1170.78V412.996ZM1177.38 426.18V418.405L1190.9 418.067V412.996H1178.05V410.292H1190.9L1193.94 413.334V429.223H1180.42L1177.38 426.18ZM1180.42 421.109V426.518H1190.9V420.433L1180.42 421.109ZM1197.98 429.223V410.292H1201.84L1208.13 419.96L1214.41 410.292H1218.27V429.223H1215.29V413.672L1209.14 423.138H1207.11L1200.96 413.672V429.223H1197.98ZM1249.01 429.223H1245.97V413.436L1235.09 429.223H1231.1V410.292H1234.14V426.079L1245.02 410.292H1249.01V429.223ZM1016.12 470.518H1027.11V458.687H1016.12V470.518ZM1016.12 473.223L1013.08 470.18V452.602L1016.12 449.559H1029.64V452.264H1016.12V455.982H1027.45L1030.15 458.687V470.18L1027.11 473.223H1016.12ZM1033.4 477.955V475.251H1042.22L1043.68 470.518H1037.9L1032.39 454.292H1035.46L1040.06 467.814H1044.49L1048.85 454.292H1051.93L1044.35 477.955H1033.4ZM1053.13 473.223L1058.54 463.081L1053.64 454.292H1057.05L1061.24 462.067H1064.62L1068.82 454.292H1072.23L1067.33 463.081L1072.74 473.223H1069.32L1064.96 464.771H1060.91L1056.54 473.223H1053.13ZM1075.61 473.223V454.292H1088.79V456.996H1078.65V473.223H1075.61ZM1091.15 470.18V462.405L1104.67 462.067V456.996H1091.82V454.292H1104.67L1107.71 457.334V473.223H1094.19L1091.15 470.18ZM1094.19 465.109V470.518H1104.67V464.433L1094.19 465.109ZM1128.66 454.292V473.223H1125.62V456.929H1118.14L1115.2 473.223H1110.23V470.451H1112.67L1115.61 454.292H1128.66ZM1141.68 473.223H1138.63V456.996H1131.37V454.292H1148.94V456.996H1141.68V473.223ZM1151.47 470.18V457.334L1154.51 454.292H1167.69V464.771H1154.51V470.518H1167.02V473.223H1154.51L1151.47 470.18ZM1154.51 462.405L1164.78 462.067V456.996H1154.51V462.405ZM1171.57 477.955V454.292H1185.6L1188.65 457.334V470.18L1185.6 473.223H1174.62V477.955H1171.57ZM1185.6 456.996H1174.62V470.518H1185.6V456.996ZM1192.2 470.18V462.405L1205.72 462.067V456.996H1192.88V454.292H1205.72L1208.76 457.334V473.223H1195.24L1192.2 470.18ZM1195.24 465.109V470.518H1205.72V464.433L1195.24 465.109ZM1212.81 473.223V454.292H1216.66L1222.95 463.96L1229.24 454.292H1233.09V473.223H1230.12V457.672L1223.96 467.138H1221.93L1215.78 457.672V473.223H1212.81Z" fill="black"/>
<rect x="1446.12" y="299.299" width="585.436" height="235.535" rx="25.6864" fill="white" stroke="#C6C5C5" stroke-width="2.12576"/>
<mask id="mask2_570_289" style="mask-type:alpha" maskUnits="userSpaceOnUse" x="1445" y="242" width="516" height="294">
<path d="M1471.81 535.895H1933.65C1960.96 535.895 1970.72 499.794 1947.13 486.039L1536.55 246.607C1532.46 244.222 1527.81 242.965 1523.07 242.965H1471.81C1457.04 242.965 1445.06 254.941 1445.06 269.714V298.235V509.146C1445.06 523.919 1457.04 535.895 1471.81 535.895Z" fill="#D9D9D9"/>
</mask>
<g mask="url(#mask2_570_289)">
<path d="M1468.42 334.085C1481.32 326.634 1497.23 326.634 1510.13 334.085L1579.61 374.199C1592.52 381.65 1600.47 395.422 1600.47 410.326V490.552C1600.47 505.456 1592.52 519.228 1579.61 526.68L1510.13 566.793C1497.23 574.245 1481.32 574.245 1468.42 566.793L1398.94 526.68C1386.03 519.228 1378.08 505.456 1378.08 490.552V410.326C1378.08 395.422 1386.03 381.65 1398.94 374.199L1468.42 334.085Z" fill="#0080E5" fill-opacity="0.17"/>
<path d="M1633.75 379.847C1633.75 379.847 1637.4 375.501 1640.26 374.415C1643.13 373.329 1646.88 375.501 1649.45 377.773C1652.02 380.044 1653.03 382.857 1651.65 384.338C1650.26 385.82 1647.67 382.422 1646.19 380.69L1643.92 380.044C1643.92 380.044 1646.59 383.303 1646.39 385.674C1646.39 385.674 1648.76 387.253 1648.66 390.119C1648.66 390.119 1650.34 392.193 1650.24 394.266C1650.14 396.341 1648.26 399.204 1645.99 401.478C1643.72 403.748 1640.36 403.156 1639.97 403.156C1639.57 403.156 1638.49 406.02 1636.61 406.909C1634.73 407.797 1633.75 407.501 1633.75 407.501L1625.55 418.725L1612.51 409.081L1621.89 397.131C1621.89 397.131 1623.87 388.044 1626.63 383.106C1629.4 378.168 1633.75 379.847 1633.75 379.847Z" fill="#FFA18B"/>
<path d="M1550.3 341.916C1550.3 341.916 1565.09 351.39 1574.03 365.771C1582.97 380.152 1594.75 415.134 1594.75 415.134L1616.79 407.287L1636.22 421.802C1636.22 421.802 1626.51 451.082 1604.74 460.997C1582.97 470.913 1572.09 461.162 1572.09 461.162L1550.3 341.916Z" fill="#73A2DB"/>
<path d="M1630.49 402.704L1613.87 440.908H1592.64L1608.92 402.698L1630.49 402.704Z" fill="#005484"/>
<path d="M1445.76 745.895H1478.41L1526.65 558.557L1556.16 745.895H1585.88C1585.88 745.895 1590.33 698.907 1591.01 644.763C1591.2 630.793 1591.12 616.359 1590.66 602.115C1590.57 599.504 1590.46 596.906 1590.36 594.307C1587.24 522.793 1582.97 470.907 1582.97 470.907L1472.19 476.731C1468.22 488.647 1462.07 549.755 1456.7 610.754C1455.65 622.766 1454.62 634.766 1453.65 646.395V646.409C1449.14 700.253 1445.76 745.895 1445.76 745.895Z" fill="#005484"/>
<path d="M1538.66 283.179C1538.66 283.179 1540.99 301.835 1538.66 307.375C1536.33 312.914 1531.37 314.371 1526.42 314.954C1521.46 315.537 1530.79 340.316 1530.79 340.316L1502.22 337.4C1502.22 337.4 1503.68 298.92 1502.22 285.221C1500.77 271.519 1512.01 268.895 1520.96 268.895C1529.92 268.895 1536.04 276.766 1538.66 283.179Z" fill="#FFA18B"/>
<path d="M1466 402.703C1467.09 420.237 1468.66 438.97 1469.95 453.199C1471.2 467.117 1472.19 476.734 1472.19 476.734L1489.29 475.836L1582.97 470.912C1582.97 470.912 1582.67 466.505 1582.07 459.335C1579.7 430.671 1566.11 357.908 1555.38 346.713C1541.98 332.729 1526.98 328.657 1526.98 328.657H1502.09C1502.09 328.657 1472.19 340.315 1466.37 351.974C1463.98 356.749 1464.52 378.596 1466 402.703Z" fill="#9BBAEA"/>
<path d="M1466 402.702C1467.09 420.237 1468.66 438.97 1469.95 453.199C1474.49 460.927 1480.83 469.36 1489.29 475.836L1582.97 470.912C1582.97 470.912 1582.67 466.505 1582.07 459.335L1582.19 454C1582.19 454 1549.46 473.429 1523.85 464.885C1498.24 456.328 1466 402.702 1466 402.702Z" fill="#73A2DB"/>
<path d="M1475.11 346.726C1475.11 346.726 1485.02 345.56 1496.68 365.965C1508.35 386.37 1520.9 434.179 1520.9 434.179L1585.89 421.936L1594.75 446.85C1594.75 446.85 1541.58 484.902 1513.01 480.236C1484.44 475.572 1465.2 424.851 1459.96 389.285C1454.71 353.722 1465.2 347.892 1475.11 346.726Z" fill="#9BBAEA"/>
<path d="M1520.9 434.178L1497.46 450.502C1497.46 450.502 1498.18 444.672 1502.09 442.34C1506.01 440.008 1502.63 437.676 1509.18 434.178C1515.73 430.68 1519.2 427.973 1519.2 427.973L1520.9 434.178Z" fill="#73A2DB"/>
<path d="M1502.7 320.492L1520.9 328.659C1520.9 328.659 1516.31 335.453 1513.79 337.59L1499.65 329.663L1502.7 320.492Z" fill="#73A2DB"/>
<path d="M1525.39 321.989L1520.9 328.661L1527.39 335.26C1527.39 335.26 1528.07 332.348 1528.7 329.042C1529.33 325.738 1525.39 321.989 1525.39 321.989Z" fill="#73A2DB"/>
<path d="M1586.55 423.803L1597.4 420.771C1597.4 420.771 1602.79 412.026 1605.85 409.985C1608.92 407.945 1609.79 406.779 1611.39 407.507C1613 408.236 1607.6 414.111 1606.58 415.546C1605.56 416.981 1606.44 419.459 1606.44 419.459C1606.44 419.459 1613.43 420.625 1618.97 419.168C1624.51 417.71 1626.99 414.504 1628.01 416.4C1629.03 418.293 1624.51 422.374 1624.51 422.374C1624.51 422.374 1625.68 424.852 1623.05 427.621C1623.05 427.621 1623.35 430.392 1621.16 431.994C1621.16 431.994 1620.43 435.2 1618.1 436.366C1615.77 437.532 1600.46 437.824 1600.46 437.824L1592.64 440.91L1586.55 423.803Z" fill="#FFA18B"/>
<path d="M1572.09 425.628L1579.28 453.225" stroke="#73A2DB" stroke-width="1.53826" stroke-miterlimit="10" stroke-linecap="round" stroke-linejoin="round"/>
<path d="M1585.89 421.937L1520.9 434.18C1520.9 434.18 1500.47 368.882 1481.23 352.849" stroke="#73A2DB" stroke-width="1.53826" stroke-miterlimit="10" stroke-linecap="round" stroke-linejoin="round"/>
<path d="M1526.02 333.864L1523.85 341.331L1519.57 341.914L1515.99 335.258L1520.9 328.659L1526.02 333.864Z" fill="#DF535C"/>
<path d="M1523.85 338.708C1523.85 338.708 1533.15 360.717 1539.7 381.705C1546.24 402.693 1547.7 414.938 1547.7 414.938L1541.87 426.889L1526.02 414.355L1519.13 339.437L1523.85 338.708Z" fill="#DF535C"/>
<path d="M1526.65 558.557L1556.16 745.895H1573.32C1570.53 740.887 1566 731.379 1563.92 719.463C1560.82 701.586 1564.7 697.696 1558.48 672.04C1552.26 646.397 1556.35 636.478 1547.69 608.4C1539.06 580.322 1545.95 571.48 1541.57 560.979C1537.21 550.491 1545.37 538.531 1544.5 530.084L1526.65 558.557Z" fill="#004569"/>
<path d="M1579.28 483.734H1476.28" stroke="#004569" stroke-width="1.53826" stroke-miterlimit="10"/>
<path d="M1505.72 270.495C1505.72 270.495 1508.05 265.685 1517.38 263.061C1526.71 260.438 1531.55 263.084 1537.5 261.896C1546.97 260.001 1547.55 266.851 1543.03 276.034C1541.86 278.419 1541.72 284.341 1538.97 285.944C1538.97 285.944 1538.08 282.592 1536.04 279.969C1534 277.345 1522.05 278.803 1516.36 276.471C1516.36 276.471 1518.26 282.737 1517.38 285.944C1516.51 289.151 1514.9 290.463 1514.9 290.463C1514.9 290.463 1512.13 284.196 1508.35 285.507C1504.56 286.819 1504.85 295.273 1508.2 299.499C1511.55 303.728 1513.16 303.435 1513.16 303.435L1502.84 311.018C1502.84 311.018 1495.08 285.07 1497.41 277.782C1499.74 270.495 1505.72 270.495 1505.72 270.495Z" fill="#004569"/>
</g>
<path d="M1701.64 364.65H1698.59V344.131L1687.03 364.65H1682.71V340.987H1685.75V361.507L1697.31 340.987H1701.64V364.65ZM1711.6 364.65V343.691H1704.33V340.987H1721.91V343.691H1714.64V364.65H1711.6ZM1723.92 355.354V352.312H1732.71V355.354H1723.92ZM1737.1 369.383V366.679H1749.61V361.946H1738.96L1735.92 358.904V348.762L1739.3 345.72H1752.65V366.205L1749.47 369.383H1737.1ZM1738.96 348.424V359.242H1749.61V348.424H1738.96ZM1774.64 364.65H1771.6V348.863L1760.71 364.65H1756.72V345.72H1759.76V361.507L1770.65 345.72H1774.64V364.65ZM1778.71 369.383V345.72H1792.74L1795.78 348.762V361.608L1792.74 364.65H1781.75V369.383H1778.71ZM1792.74 348.424H1781.75V361.946H1792.74V348.424ZM1799.5 361.608V348.762L1802.54 345.72H1815.73V356.199H1802.54V361.946H1815.05V364.65H1802.54L1799.5 361.608ZM1802.54 353.833L1812.82 353.495V348.424H1802.54V353.833ZM1819.61 364.65V345.72H1822.65V353.461H1829.21L1834.42 345.72H1837.93L1831.95 354.441L1838.2 364.65H1834.75L1829.65 356.165H1822.65V364.65H1819.61ZM1849.53 364.65H1846.49V348.424H1839.22V345.72H1856.8V348.424H1849.53V364.65ZM1859.32 361.608V348.762L1862.36 345.72H1872.84L1875.88 348.762V361.608L1872.84 364.65H1862.36L1859.32 361.608ZM1862.36 361.946H1872.84V348.424H1862.36V361.946ZM1879.76 369.383V345.72H1893.79L1896.83 348.762V361.608L1893.79 364.65H1882.8V369.383H1879.76ZM1893.79 348.424H1882.8V361.946H1893.79V348.424ZM1900.38 361.608V353.833L1913.91 353.495V348.424H1901.06V345.72H1913.91L1916.95 348.762V364.65H1903.43L1900.38 361.608ZM1903.43 356.537V361.946H1913.91V355.861L1903.43 356.537ZM1920.99 364.65V345.72H1924.85L1931.13 355.388L1937.42 345.72H1941.28V364.65H1938.3V349.1L1932.15 358.565H1930.12L1923.97 349.1V364.65H1920.99ZM1972.02 364.65H1968.98V348.863L1958.09 364.65H1954.1V345.72H1957.15V361.507L1968.03 345.72H1972.02V364.65ZM1682.71 413.383V389.72H1696.74L1699.78 392.762V405.608L1696.74 408.65H1685.75V413.383H1682.71ZM1696.74 392.424H1685.75V405.946H1696.74V392.424ZM1703.03 413.383V410.679H1711.85L1713.3 405.946H1707.52L1702.01 389.72H1705.09L1709.69 403.242H1714.12L1718.48 389.72H1721.55L1713.98 413.383H1703.03ZM1723.94 408.65V389.72H1726.98V397.461H1733.54L1738.75 389.72H1742.26L1736.28 398.441L1742.53 408.65H1739.08L1733.98 400.165H1726.98V408.65H1723.94ZM1744.07 405.608V392.762L1747.12 389.72H1757.6L1760.64 392.762V405.608L1757.6 408.65H1747.12L1744.07 405.608ZM1747.12 405.946H1757.6V392.424H1747.12V405.946ZM1764.51 389.72H1778.03L1780.74 392.424V397.326L1778.81 398.779L1781.41 400.808V405.946L1778.71 408.65H1764.51V389.72ZM1767.55 397.63H1777.7V392.424H1767.55V397.63ZM1767.55 405.946H1778.37V400.334H1767.55V405.946ZM1784.98 405.608V392.762L1788.02 389.72H1798.5L1801.54 392.762V405.608L1798.5 408.65H1788.02L1784.98 405.608ZM1788.02 405.946H1798.5V392.424H1788.02V405.946ZM1806.43 413.383V410.679H1818.94V405.946H1808.29L1805.25 402.904V392.762L1808.63 389.72H1821.98V410.205L1818.8 413.383H1806.43ZM1808.29 392.424V403.242H1818.94V392.424H1808.29ZM1843.96 408.65H1840.92V392.863L1830.04 408.65H1826.05V389.72H1829.09V405.507L1839.98 389.72H1843.96V408.65ZM1856.99 408.65H1853.95V392.424H1846.68V389.72H1864.26V392.424H1856.99V408.65ZM1866.78 405.608V392.762L1869.82 389.72H1883.01V400.199H1869.82V405.946H1882.33V408.65H1869.82L1866.78 405.608ZM1869.82 397.833L1880.1 397.495V392.424H1869.82V397.833ZM1903.79 389.72V408.65H1900.75V392.356H1893.28L1890.34 408.65H1885.37V405.878H1887.8L1890.74 389.72H1903.79ZM1911.06 399.861H1921.04V392.424H1911.06V399.861ZM1908.02 400.199V392.424L1910.73 389.72H1924.08V408.65H1921.04V402.565H1912.62L1909.61 408.65H1906.33L1909.81 401.991L1908.02 400.199ZM1928.12 408.65V389.72H1931.98L1938.26 399.388L1944.55 389.72H1948.41V408.65H1945.43V393.1L1939.28 402.565H1937.25L1931.1 393.1V408.65H1928.12ZM1699.61 433.72V449.946H1701.87V457.383H1698.83V452.65H1682.71V433.72H1685.75V449.946H1696.57V433.72H1699.61ZM1722.15 452.65H1719.1V436.863L1708.22 452.65H1704.23V433.72H1707.27V449.507L1718.16 433.72H1722.15V452.65ZM1726.22 449.946V436.424L1728.92 433.72H1746.5L1749.2 436.424V449.946L1746.5 452.65H1728.92L1726.22 449.946ZM1729.26 436.289V450.081H1746.16V436.289H1729.26ZM1739.23 457.383H1736.19V428.987H1739.23V457.383ZM1753.25 457.383V433.72H1767.28L1770.33 436.762V449.608L1767.28 452.65H1756.3V457.383H1753.25ZM1767.28 436.424H1756.3V449.946H1767.28V436.424ZM1774.05 449.608V436.762L1777.09 433.72H1787.57L1790.61 436.762V449.608L1787.57 452.65H1777.09L1774.05 449.608ZM1777.09 449.946H1787.57V436.424H1777.09V449.946ZM1794.49 433.72H1808.01L1810.71 436.424V441.326L1808.79 442.779L1811.39 444.808V449.946L1808.69 452.65H1794.49V433.72ZM1797.53 441.63H1807.67V436.424H1797.53V441.63ZM1797.53 449.946H1808.35V444.334H1797.53V449.946ZM1814.95 449.608V436.762L1817.99 433.72H1828.47L1831.52 436.762V449.608L1828.47 452.65H1817.99L1814.95 449.608ZM1817.99 449.946H1828.47V436.424H1817.99V449.946ZM1853.31 452.65H1850.26V436.863L1839.38 452.65H1835.39V433.72H1838.43V449.507L1849.32 433.72H1853.31V452.65ZM1848 427.297H1851.11L1848.74 431.353H1839.95L1837.59 427.297H1840.7L1841.81 429.156H1846.88L1848 427.297ZM1700.62 496.65H1697.58V480.863L1686.7 496.65H1682.71V477.72H1685.75V493.507L1696.63 477.72H1700.62V496.65ZM1704.69 496.65V477.72H1707.74V485.833H1718.55V477.72H1721.6V496.65H1718.55V488.537H1707.74V496.65H1704.69ZM1725.66 493.946V480.424L1728.36 477.72H1745.94L1748.64 480.424V493.946L1745.94 496.65H1728.36L1725.66 493.946ZM1728.7 480.289V494.081H1745.6V480.289H1728.7ZM1738.67 501.383H1735.63V472.987H1738.67V501.383ZM1752.69 501.383V477.72H1766.72L1769.76 480.762V493.608L1766.72 496.65H1755.74V501.383H1752.69ZM1766.72 480.424H1755.74V493.946H1766.72V480.424ZM1773.32 493.608V485.833L1786.84 485.495V480.424H1773.99V477.72H1786.84L1789.88 480.762V496.65H1776.36L1773.32 493.608ZM1776.36 488.537V493.946H1786.84V487.861L1776.36 488.537ZM1793.76 493.608V480.762L1796.8 477.72H1809.31V480.424H1796.8V493.946H1809.31V496.65H1796.8L1793.76 493.608ZM1821.31 496.65H1818.26V480.424H1811V477.72H1828.57V480.424H1821.31V496.65ZM1831.26 501.383V477.72H1845.29L1848.34 480.762V493.608L1845.29 496.65H1834.31V501.383H1831.26ZM1845.29 480.424H1834.31V493.946H1845.29V480.424ZM1851.58 501.383V498.679H1860.41L1861.86 493.946H1856.08L1850.57 477.72H1853.65L1858.24 491.242H1862.67L1867.03 477.72H1870.11L1862.54 501.383H1851.58ZM1872.5 496.65V477.72H1875.54V485.461H1882.1L1887.3 477.72H1890.82L1884.84 486.441L1891.09 496.65H1887.64L1882.54 488.165H1875.54V496.65H1872.5ZM1902.42 496.65H1899.38V480.424H1892.11V477.72H1909.69V480.424H1902.42V496.65ZM1911.73 501.383V498.679H1920.56L1922.01 493.946H1916.23L1910.72 477.72H1913.8L1918.39 491.242H1922.82L1927.18 477.72H1930.26L1922.69 501.383H1911.73ZM1932.65 501.383V477.72H1946.67L1949.72 480.762V493.608L1946.67 496.65H1935.69V501.383H1932.65ZM1946.67 480.424H1935.69V493.946H1946.67V480.424ZM1953.61 496.65V477.72H1956.65V482.452H1967.64L1970.68 485.495V493.608L1967.64 496.65H1953.61ZM1956.65 493.946H1967.64V485.157H1956.65V493.946ZM1974.57 496.65V477.72H1977.61V496.65H1974.57Z" fill="black"/>
</svg>
