<svg width="397" height="354" viewBox="0 0 397 354" fill="none" xmlns="http://www.w3.org/2000/svg">
<path fill-rule="evenodd" clip-rule="evenodd" d="M128.34 196.929C128.345 196.957 128.355 196.996 128.363 197.024L128.34 196.929ZM128.363 197.024L128.395 197.121C128.388 197.103 128.37 197.046 128.363 197.024C128.366 197.035 128.359 197.012 128.363 197.024Z" fill="url(#paint0_linear_3_90)"/>
<path fill-rule="evenodd" clip-rule="evenodd" d="M128.436 196.926C128.438 197.02 128.435 197.157 128.43 197.246C128.419 197.192 128.411 197.168 128.395 197.121C128.388 197.103 128.37 197.046 128.363 197.024C128.366 197.035 128.359 197.012 128.363 197.024C128.355 196.996 128.345 196.957 128.34 196.929L128.334 196.877L128.325 196.787L128.317 196.718L128.31 196.65L128.295 196.516C128.302 196.535 128.319 196.574 128.331 196.6L128.363 196.674C128.365 196.682 128.417 196.715 128.431 196.721C128.437 196.723 128.427 196.718 128.431 196.721C128.442 196.726 128.429 196.712 128.431 196.721C128.437 196.723 128.427 196.718 128.431 196.721C128.437 196.756 128.424 196.834 128.422 196.867C128.421 196.885 128.432 196.915 128.436 196.926C128.438 196.932 128.435 196.92 128.436 196.926ZM128.47 196.83C128.471 196.845 128.445 196.91 128.436 196.926C128.435 196.91 128.427 196.942 128.436 196.926C128.437 196.942 128.431 196.91 128.436 196.926C128.437 196.928 128.447 196.98 128.448 196.983M128.448 196.983C128.452 196.996 128.459 197.023 128.46 197.036L128.448 196.983ZM128.46 197.036C128.462 197.059 128.469 197.082 128.476 197.104L128.46 197.036ZM128.448 196.983C128.451 197.045 128.485 197.107 128.491 197.169C128.489 197.152 128.48 197.122 128.476 197.104C128.477 197.108 128.474 197.101 128.476 197.104M128.448 196.983C128.447 196.961 128.474 196.854 128.47 196.83L128.448 196.983ZM128.47 196.83C128.471 196.845 128.468 196.812 128.47 196.83Z" fill="url(#paint1_linear_3_90)"/>
<path fill-rule="evenodd" clip-rule="evenodd" d="M128.363 196.674C128.379 196.687 128.421 196.716 128.431 196.721C128.431 196.751 128.425 196.831 128.422 196.867L128.457 196.776C128.456 196.769 128.435 196.727 128.431 196.721C128.437 196.723 128.427 196.718 128.431 196.721C128.428 196.695 128.428 196.651 128.428 196.613C128.428 196.64 128.429 196.694 128.431 196.721C128.432 196.728 128.43 196.713 128.431 196.721C128.448 196.728 128.428 196.709 128.431 196.721C128.424 196.718 128.368 196.677 128.363 196.674ZM128.436 196.926C128.439 196.947 128.448 196.973 128.448 196.983C128.448 196.977 128.448 196.929 128.436 196.926C128.437 196.945 128.443 196.964 128.448 196.983C128.452 196.996 128.459 197.023 128.46 197.036C128.462 197.059 128.469 197.082 128.476 197.104C128.48 197.122 128.489 197.152 128.491 197.169C128.485 197.107 128.451 197.045 128.448 196.983C128.448 196.967 128.438 196.943 128.436 196.926ZM128.274 196.316L128.266 196.238C128.267 196.253 128.273 196.301 128.274 196.316C128.276 196.35 128.274 196.352 128.281 196.385C128.28 196.379 128.275 196.322 128.274 196.316C128.275 196.333 128.272 196.299 128.274 196.316ZM128.546 197.405C128.547 197.418 128.542 197.39 128.546 197.405C128.552 197.451 128.561 197.481 128.573 197.526C128.569 197.511 128.565 197.493 128.561 197.474C128.558 197.46 128.549 197.419 128.546 197.405C128.546 197.406 128.545 197.404 128.546 197.405C128.548 197.413 128.544 197.397 128.546 197.405Z" fill="url(#paint2_linear_3_90)"/>
<path fill-rule="evenodd" clip-rule="evenodd" d="M366.154 323.078C364.368 321.072 362.197 319.647 359.673 318.703L363.476 325.152C337.479 344.276 302.886 353.944 260.514 353.944C236.999 354.32 213.642 350.042 191.8 341.359L191.737 341.334C190.882 340.994 190.029 340.647 189.18 340.293L188.926 340.187C177.636 335.47 166.886 329.619 156.837 322.739C155.628 321.911 154.429 321.069 153.241 320.211C146.111 315.068 139.357 309.394 133.038 303.23C130.196 300.481 127.45 297.639 124.805 294.709L124.526 294.399C123.3 293.035 122.096 291.651 120.914 290.249C114.557 282.709 108.845 274.64 103.842 266.123L70.2871 266.117C69.5523 266.119 68.8181 266.11 68.0849 266.089C58.8728 265.827 49.7984 263.742 41.3784 259.952C32.2793 255.849 24.1647 249.858 17.5775 242.379C10.9725 234.882 6.04138 226.074 3.11067 216.537C0.176466 206.989 -0.695413 196.931 0.552372 187.023C1.80016 177.116 5.13934 167.584 10.3503 159.054C15.553 150.55 22.5134 143.245 30.769 137.627C39.0012 132.02 48.3462 128.239 58.172 126.539C67.9319 124.851 77.9404 125.256 87.5296 127.725C88.8332 123.35 90.319 119.04 91.9861 114.796C92.3133 113.963 92.6474 113.133 92.9885 112.305C101.999 90.44 115.874 70.3606 134.481 52.2469C138.413 48.2288 142.531 44.4108 146.818 40.8041C151.09 37.2114 155.529 33.8282 160.121 30.6653C170.109 23.7869 180.817 17.9515 192.08 13.2714L192.242 13.2029C213.799 4.2761 236.948 -0.212002 260.294 0.00769264C260.653 0.00769264 261.013 0.008957 261.373 0.0114854L263.498 0.0410919C293.712 0.67023 324.961 10.1865 356.688 28.4689V28.2475C359.843 30.0577 362.959 31.9345 366.034 33.8769C367.095 34.37 368.041 35.0767 368.814 35.9523C369.586 36.8279 370.168 37.8535 370.523 38.9644C370.816 40.3668 370.815 41.8142 370.514 43.2151C370.213 44.62 369.617 45.9528 368.77 47.1158V47.3835L353.997 68.867L353.497 69.4524C353.212 69.7768 352.907 70.0827 352.585 70.3685L352.542 70.4065C352.092 70.8014 351.609 71.1577 351.098 71.4707L350.987 71.5384C350.724 71.6951 350.453 71.8405 350.177 71.9741C349.88 72.1173 349.578 72.2462 349.27 72.3606L349.208 72.3833C349.044 72.4432 348.879 72.499 348.712 72.5506C347.876 72.8091 347.01 72.9633 346.132 73.0081C344.507 72.952 342.944 72.404 341.643 71.4326C312.491 53.1 285.489 44.0956 261.369 44.0956C243.633 43.9649 226.058 47.4553 209.729 54.3517C199.648 58.6104 190.17 64.1047 181.507 70.6889L181.343 70.8137L181.138 70.9707C175.88 74.9963 170.926 79.4247 166.322 84.2231C162.191 88.1805 158.339 92.4064 154.794 96.8589L154.713 96.9608C154.411 97.3416 154.111 97.7242 153.814 98.1085C150.85 101.934 148.107 105.925 145.59 110.057C154.858 95.976 167.603 84.6897 183.68 77.865C194.504 73.2703 206.856 70.7102 220.72 70.7102C233.526 70.7114 246.205 73.2406 258.025 78.1516C269.86 83.072 280.604 90.2712 289.64 99.3363C298.701 108.423 305.881 119.194 310.772 131.038C315.673 142.895 318.193 155.611 318.193 168.438C318.174 172.536 317.905 176.627 317.38 180.693C326.063 173.321 337.104 169.279 348.514 169.298C354.863 169.302 361.148 170.556 367.007 172.99C372.867 175.423 378.185 178.987 382.656 183.477C389.658 190.509 394.296 199.449 396.036 209.064L396.089 209.364L396.112 209.498C396.57 212.185 396.799 214.948 396.797 217.707C396.798 219.28 396.723 220.845 396.573 222.398C396.443 223.736 396.259 225.066 396.019 226.382C395.666 228.319 395.193 230.237 394.603 232.126C392.865 237.709 390.127 242.959 386.49 247.605L386.408 247.709L386.147 248.039L386.078 248.124L386.014 248.204C385.819 248.445 385.623 248.683 385.423 248.92C385.06 249.352 384.688 249.779 384.309 250.2C383.773 250.793 383.222 251.375 382.656 251.944C381.582 253.022 380.459 254.047 379.291 255.016L379.148 255.134C375.492 258.144 371.401 260.604 367.007 262.428C361.147 264.861 354.862 266.114 348.514 266.117H159.781C160.452 266.909 161.171 267.713 161.874 268.497L162.051 268.694C162.505 269.2 162.958 269.708 163.404 270.22L163.257 270.275C162.003 268.901 160.786 267.511 159.59 266.123C160.632 267.57 161.715 269.016 162.843 270.433C163.023 270.364 163.162 270.311 163.257 270.275C163.793 270.862 164.335 271.447 164.885 272.026C177.53 284.387 192.516 294.118 208.973 300.652C225.401 307.173 242.97 310.361 260.651 310.03C293.536 310.03 320.482 302.602 340.788 287.924C340.965 287.779 341.16 287.657 341.369 287.563C343.247 286.34 345.518 285.864 347.731 286.231C349.944 286.598 351.938 287.78 353.317 289.543L368.053 311.027C369.308 312.924 369.802 315.223 369.436 317.466C369.076 319.678 367.906 321.676 366.154 323.078ZM83.3904 209.234L83.17 208.89L83.2659 209.469L83.3643 209.283L83.3904 209.234ZM83.3904 209.234L83.541 209.469L83.5434 209.108L83.5401 209.044L83.4755 209.076L83.3904 209.234ZM82.4707 204.288L82.7121 204.042C82.7121 203.315 82.6895 202.583 82.4214 201.859V203.934V204.338L82.4707 204.288ZM128.395 197.121C128.408 197.16 128.421 197.201 128.43 197.246C128.435 197.157 128.438 197.02 128.436 196.926C128.439 196.963 128.457 196.999 128.46 197.036C128.462 197.059 128.469 197.082 128.476 197.104C128.48 197.122 128.489 197.152 128.491 197.169C128.485 197.107 128.451 197.045 128.448 196.983C128.447 196.961 128.474 196.854 128.47 196.83C128.471 196.845 128.468 196.812 128.47 196.83C128.474 196.841 128.469 196.818 128.47 196.83C128.468 196.823 128.457 196.782 128.457 196.776C128.456 196.769 128.435 196.727 128.431 196.721C128.437 196.723 128.427 196.718 128.431 196.721L128.428 196.557C128.426 196.612 128.424 196.667 128.431 196.721C128.448 196.728 128.428 196.709 128.431 196.721C128.417 196.715 128.365 196.682 128.363 196.674L128.331 196.6C128.319 196.574 128.302 196.535 128.295 196.516C128.296 196.519 128.294 196.512 128.295 196.516L128.31 196.65L128.317 196.718L128.325 196.787L128.334 196.877L128.34 196.929C128.345 196.957 128.355 196.996 128.363 197.024C128.366 197.035 128.359 197.012 128.363 197.024C128.37 197.046 128.388 197.103 128.395 197.121ZM128.266 196.238C128.27 196.287 128.271 196.337 128.281 196.385C128.276 196.363 128.276 196.339 128.274 196.316L128.266 196.238ZM128.546 197.405C128.552 197.451 128.561 197.481 128.573 197.526L128.546 197.405Z" fill="url(#paint3_linear_3_90)"/>
<path d="M358.976 319.108C359.132 319.212 359.342 319.577 359.42 319.931C359.5 320.291 360.021 320.128 360.191 320.167C360.336 320.2 360.387 320.467 360.544 320.637C360.667 320.77 360.91 320.755 361.119 320.717C361.43 320.659 361.329 320.155 361.368 319.946C361.424 319.646 361.798 319.527 362.047 319.292C362.348 319.161 362.687 319.108 362.922 319.121C362.977 319.134 362.899 319.16 362.741 319.344" stroke="#58B0F7" stroke-width="10" stroke-linecap="round"/>
<path d="M82.9568 201.665C82.8883 202.732 82.9335 204.199 82.9794 204.769C83.0336 205.441 83.1391 205.752 83.1737 206.505C83.2063 207.213 83.3214 208.219 83.4249 208.653C83.4366 208.881 83.4592 209.066 83.4934 209.259C83.5051 209.384 83.5051 209.565 83.5051 209.752" stroke="#58B0F7" stroke-width="2" stroke-linecap="round"/>
<defs>
<linearGradient id="paint0_linear_3_90" x1="1377.61" y1="-56.6369" x2="1129.53" y2="647.849" gradientUnits="userSpaceOnUse">
<stop stop-color="#0D8EF3"/>
<stop offset="1" stop-color="#5CB2F7"/>
</linearGradient>
<linearGradient id="paint1_linear_3_90" x1="1377.42" y1="-56.6336" x2="1129.33" y2="647.823" gradientUnits="userSpaceOnUse">
<stop stop-color="#0D8EF3"/>
<stop offset="1" stop-color="#5CB2F7"/>
</linearGradient>
<linearGradient id="paint2_linear_3_90" x1="1377.4" y1="-56.634" x2="1129.29" y2="647.819" gradientUnits="userSpaceOnUse">
<stop stop-color="#0D8EF3"/>
<stop offset="1" stop-color="#5CB2F7"/>
</linearGradient>
<linearGradient id="paint3_linear_3_90" x1="1377.43" y1="-56.6351" x2="1129.33" y2="647.825" gradientUnits="userSpaceOnUse">
<stop stop-color="#0D8EF3"/>
<stop offset="1" stop-color="#5CB2F7"/>
</linearGradient>
</defs>
</svg>
